<svg xmlns="http://www.w3.org/2000/svg" xmlns:xlink="http://www.w3.org/1999/xlink" width="3332.223" height="2006.001" viewBox="0 0 3332.223 2006.001">
  <defs>
    <linearGradient id="linear-gradient" x1="0.5" x2="0.5" y2="1" gradientUnits="objectBoundingBox">
      <stop offset="0" stop-color="#e9e4ec"/>
      <stop offset="0.389" stop-color="#fefefe"/>
      <stop offset="1" stop-color="#fff"/>
    </linearGradient>
    <filter id="Subtraction_5" x="0" y="207.443" width="1393.365" height="1798.558" filterUnits="userSpaceOnUse">
      <feOffset dx="3" dy="3" input="SourceAlpha"/>
      <feGaussianBlur stdDeviation="49.5" result="blur"/>
      <feFlood flood-opacity="0.188"/>
      <feComposite operator="in" in2="blur"/>
      <feComposite in="SourceGraphic"/>
    </filter>
    <filter id="Subtraction_4" x="0" y="0.001" width="1051.565" height="1351.967" filterUnits="userSpaceOnUse">
      <feOffset dx="3" dy="3" input="SourceAlpha"/>
      <feGaussianBlur stdDeviation="49.5" result="blur-2"/>
      <feFlood flood-opacity="0.188"/>
      <feComposite operator="in" in2="blur-2"/>
      <feComposite in="SourceGraphic"/>
    </filter>
    <radialGradient id="radial-gradient" cx="0.5" cy="0.5" r="0.5" gradientUnits="objectBoundingBox">
      <stop offset="0" stop-color="#463957"/>
      <stop offset="1" stop-color="#786279"/>
    </radialGradient>
    <filter id="Subtraction_6" x="2026.565" y="0" width="1305.658" height="559.236" filterUnits="userSpaceOnUse">
      <feOffset dy="3" input="SourceAlpha"/>
      <feGaussianBlur stdDeviation="49.5" result="blur-3"/>
      <feFlood flood-opacity="0.188"/>
      <feComposite operator="in" in2="blur-3"/>
      <feComposite in="SourceGraphic"/>
    </filter>
  </defs>
  <g id="Group_186" data-name="Group 186" transform="translate(145.498 145.501)">
    <rect id="Rectangle_784" data-name="Rectangle 784" width="3038" height="1709" fill="url(#linear-gradient)"/>
    <g transform="matrix(1, 0, 0, 1, -145.5, -145.5)" filter="url(#Subtraction_5)">
      <path id="Subtraction_5-2" data-name="Subtraction 5" d="M846.09,1501.559H0V0L1041.6,1041.6a188.41,188.41,0,0,1,23.962,29.335,185.973,185.973,0,0,1,27.385,67.178,187.551,187.551,0,0,1-10.269,106.084,186.058,186.058,0,0,1-17.116,32.525,188.4,188.4,0,0,1-23.962,29.335L846.09,1501.558Z" transform="translate(145.5 352.94)" fill="#fff"/>
    </g>
    <g transform="matrix(1, 0, 0, 1, -145.5, -145.5)" filter="url(#Subtraction_4)">
      <path id="Subtraction_4-2" data-name="Subtraction 4" d="M0,1054.967V0H609.081L699.8,90.715a188.364,188.364,0,0,1,23.963,29.335,185.969,185.969,0,0,1,27.386,67.178,187.545,187.545,0,0,1-10.27,106.084,186.048,186.048,0,0,1-17.116,32.525A188.364,188.364,0,0,1,699.8,355.172L0,1054.967Z" transform="translate(145.5 145.5)" fill="#fff"/>
    </g>
    <g transform="matrix(1, 0, 0, 1, -145.5, -145.5)" filter="url(#Subtraction_6)">
      <path id="Subtraction_6-2" data-name="Subtraction 6" d="M-2572.774,9827.235l-834.7-58.368a188.437,188.437,0,0,1-37.33-6.418,186.082,186.082,0,0,1-34.257-13.32,186.769,186.769,0,0,1-30.483-19.415,188.287,188.287,0,0,1-26.017-24.707,188.555,188.555,0,0,1-20.847-29.2,186.989,186.989,0,0,1-14.983-32.891,186.139,186.139,0,0,1-8.42-35.776,188.185,188.185,0,0,1-1.162-37.86l.3-4.279h1007.9v262.235h0Z" transform="translate(5756.5 -9419.5)" fill="url(#radial-gradient)"/>
    </g>
  </g>
</svg>
