<?xml version="1.0" encoding="iso-8859-1"?>
<!-- Generator: Adobe Illustrator 19.0.0, SVG Export Plug-In . SVG Version: 6.00 Build 0)  -->
<svg version="1.1" id="Capa_1" xmlns="http://www.w3.org/2000/svg" xmlns:xlink="http://www.w3.org/1999/xlink" x="0px" y="0px"
	 viewBox="0 0 512 512" style="enable-background:new 0 0 512 512;" xml:space="preserve">
<g>
	<g>
		<path d="M448.387,84.169H63.613c-4.143,0-7.5,3.357-7.5,7.5s3.357,7.5,7.5,7.5h384.773c4.143,0,7.5-3.357,7.5-7.5
			S452.529,84.169,448.387,84.169z"/>
	</g>
</g>
<g>
	<g>
		<path d="M448.387,372.75H63.613c-4.143,0-7.5,3.357-7.5,7.5s3.357,7.5,7.5,7.5h384.773c4.143,0,7.5-3.357,7.5-7.5
			S452.529,372.75,448.387,372.75z"/>
	</g>
</g>
<g>
	<g>
		<path d="M496.483,404.814h-8.532V83.654c0-17.396-14.152-31.549-31.548-31.549H55.597c-17.396,0-31.548,14.152-31.548,31.549
			v321.161h-8.532C6.961,404.814,0,411.775,0,420.331v16.032c0,12.976,10.557,23.532,23.532,23.532h464.936
			c12.976,0,23.532-10.557,23.532-23.532v-16.032C512,411.775,505.039,404.814,496.483,404.814z M39.049,83.654
			c0-9.125,7.423-16.549,16.548-16.549h400.807c9.125,0,16.548,7.424,16.548,16.549v321.161H39.049V83.654z M497.002,436.363H497
			c0,4.705-3.827,8.532-8.532,8.532H23.532c-4.705,0-8.532-3.827-8.532-8.532v-16.032c0-0.285,0.231-0.517,0.517-0.517h208.961
			c-0.012,0.171-0.026,0.342-0.026,0.517c0,4.143,3.357,7.5,7.5,7.5h48.098c4.143,0,7.5-3.357,7.5-7.5
			c0-0.174-0.014-0.345-0.026-0.517h208.961c0.285,0,0.517,0.231,0.517,0.517V436.363z"/>
	</g>
</g>
<g>
	<g>
		<path d="M331.115,195.098l-20.313-5.078v-30.569c0-5.11-2.517-9.891-6.731-12.787c-4.215-2.896-9.58-3.528-14.355-1.692
			L197.7,180.363h-38.688c-12.976,0-23.532,10.557-23.532,23.532v32.064c0,9.931,6.187,18.439,14.906,21.887l23.732,71.196
			c2.114,6.347,8.03,10.61,14.72,10.61h23.181c4.974,0,9.679-2.408,12.587-6.443c2.908-4.034,3.706-9.26,2.134-13.979l-18.57-55.712
			l81.547,31.364c1.804,0.693,3.691,1.035,5.57,1.035c3.093,0,6.161-0.926,8.783-2.727c4.216-2.896,6.732-7.677,6.732-12.791V249.83
			l20.312-5.078c6.92-1.729,11.753-7.919,11.753-15.053v-19.547C342.867,203.019,338.035,196.83,331.115,195.098z M150.479,235.961
			v-32.065c0-4.705,3.827-8.532,8.532-8.532h32.581v49.129h-32.581C154.306,244.493,150.479,240.667,150.479,235.961z
			 M212.509,323.972c0.027,0.083,0.083,0.253-0.071,0.466c-0.154,0.215-0.333,0.215-0.419,0.215h-23.181
			c-0.223,0-0.419-0.142-0.489-0.354l-21.604-64.808h24.271L212.509,323.972z M295.802,280.4c0,0.089,0,0.272-0.224,0.426
			s-0.396,0.089-0.478,0.057l-88.508-34.042v-53.827l88.507-34.042c0.081-0.033,0.254-0.099,0.479,0.056
			c0.224,0.154,0.224,0.338,0.224,0.426V280.4z M327.867,229.701c0,0.237-0.16,0.442-0.391,0.5l-16.674,4.168v-28.885l16.673,4.168
			c0.23,0.058,0.392,0.265,0.392,0.502V229.701z"/>
	</g>
</g>
<g>
	<g>
		<path d="M407.512,212.428h-40.081c-4.143,0-7.5,3.357-7.5,7.5s3.357,7.5,7.5,7.5h40.081c4.142,0,7.5-3.358,7.5-7.5
			C415.012,215.785,411.655,212.428,407.512,212.428z"/>
	</g>
</g>
<g>
	<g>
		<path d="M382.156,176.492c-1.853-3.704-6.355-5.203-10.063-3.353l-16.032,8.017c-3.704,1.853-5.206,6.357-3.354,10.063
			c1.314,2.628,3.963,4.147,6.714,4.147c1.127,0,2.271-0.256,3.349-0.794l16.032-8.017
			C382.506,184.703,384.008,180.198,382.156,176.492z"/>
	</g>
</g>
<g>
	<g>
		<path d="M378.801,253.3l-16.032-8.016c-3.704-1.854-8.21-0.352-10.062,3.354c-1.853,3.704-0.351,8.21,3.354,10.062l16.032,8.016
			c1.076,0.539,2.221,0.794,3.348,0.794c2.751,0,5.4-1.52,6.714-4.148C384.008,259.658,382.506,255.152,378.801,253.3z"/>
	</g>
</g>
<g>
</g>
<g>
</g>
<g>
</g>
<g>
</g>
<g>
</g>
<g>
</g>
<g>
</g>
<g>
</g>
<g>
</g>
<g>
</g>
<g>
</g>
<g>
</g>
<g>
</g>
<g>
</g>
<g>
</g>
</svg>
