<?xml version="1.0" encoding="iso-8859-1"?>
<!-- Generator: Adobe Illustrator 17.1.0, SVG Export Plug-In . SVG Version: 6.00 Build 0)  -->
<!DOCTYPE svg PUBLIC "-//W3C//DTD SVG 1.1//EN" "http://www.w3.org/Graphics/SVG/1.1/DTD/svg11.dtd">
<svg version="1.1" id="Capa_1" xmlns="http://www.w3.org/2000/svg" xmlns:xlink="http://www.w3.org/1999/xlink" x="0px" y="0px"
	 viewBox="0 0 448 448" style="enable-background:new 0 0 448 448;" xml:space="preserve">
<g>
	<path d="M95.721,304.148c-4.418,0-8,3.582-8,8c0,4.241-3.448,7.691-7.687,7.691c-4.241,0-7.691-3.45-7.691-7.691
		c0-4.24,3.45-7.689,7.691-7.689c4.418,0,8-3.582,8-8s-3.582-8-8-8c-13.063,0-23.691,10.627-23.691,23.689
		c0,13.063,10.628,23.691,23.691,23.691c13.061,0,23.687-10.628,23.687-23.691C103.721,307.729,100.139,304.148,95.721,304.148z"/>
	<path d="M384.091,304.148c-4.418,0-8,3.582-8,8c0,4.241-3.448,7.691-7.687,7.691c-4.241,0-7.691-3.45-7.691-7.691
		c0-4.24,3.45-7.689,7.691-7.689c4.418,0,8-3.582,8-8s-3.582-8-8-8c-13.063,0-23.691,10.627-23.691,23.689
		c0,13.063,10.628,23.691,23.691,23.691c13.061,0,23.687-10.628,23.687-23.691C392.091,307.729,388.509,304.148,384.091,304.148z"/>
	<path d="M446.89,201.841l-30.671-51.967c-10.519-17.551-20.445-27.8-40.312-29.533c-0.651-0.171-1.336-0.263-2.042-0.263H312.5
		v-16.25c0-8.822-7.178-16-16-16H16c-8.822,0-16,7.178-16,16v200.321c0,8.823,7.178,16,16,16h16.691
		c3.823,22.684,23.592,40.023,47.346,40.023c23.749,0,43.514-17.339,47.336-40.023h193.688
		c3.823,22.684,23.592,40.023,47.346,40.023c23.749,0,43.514-17.339,47.336-40.023H440c4.418,0,8-3.582,8-8V205.907
		C448,204.477,447.616,203.072,446.89,201.841z M416.423,232.495c0-4.411,3.589-8,8-8H432v15.749h-15.577V232.495z M427.202,199.963
		h-73.491c-0.527-0.109-1.073-0.167-1.633-0.167c-4.5,0-8.161-3.661-8.161-8.162v-32.056h59.45L427.202,199.963z M16,103.828h280.5
		v200.321H127.374c-3.82-22.684-23.587-40.023-47.337-40.023c-23.756,0-43.526,17.34-47.347,40.023H16V103.828z M80.037,344.172
		c-17.659,0-32.025-14.367-32.025-32.026c0-17.656,14.366-32.021,32.025-32.021c17.653,0,32.016,14.365,32.016,32.021
		C112.053,329.805,97.69,344.172,80.037,344.172z M368.407,344.172c-17.659,0-32.025-14.367-32.025-32.026
		c0-17.656,14.366-32.021,32.025-32.021c17.653,0,32.016,14.365,32.016,32.021C400.423,329.805,386.061,344.172,368.407,344.172z
		 M415.744,304.149c-3.82-22.684-23.587-40.023-47.337-40.023c-23.756,0-43.526,17.34-47.347,40.023H312.5V136.078h57.074
		c10.21,0,16.586,2.152,22.211,7.5h-55.868c-4.418,0-8,3.582-8,8v40.056c0,12.656,9.78,23.071,22.18,24.081
		c0.634,0.162,1.298,0.247,1.981,0.247h54.971c-4.101,4.308-6.626,10.129-6.626,16.532v15.749c0,4.418,3.582,8,8,8H432v47.905
		H415.744z"/>
	<path d="M40.333,136.078h231.834c4.418,0,8-3.582,8-8s-3.582-8-8-8H40.333c-4.418,0-8,3.582-8,8S35.915,136.078,40.333,136.078z"/>
</g>
<g>
</g>
<g>
</g>
<g>
</g>
<g>
</g>
<g>
</g>
<g>
</g>
<g>
</g>
<g>
</g>
<g>
</g>
<g>
</g>
<g>
</g>
<g>
</g>
<g>
</g>
<g>
</g>
<g>
</g>
</svg>
