<svg xmlns="http://www.w3.org/2000/svg" xmlns:xlink="http://www.w3.org/1999/xlink" width="3320.999" height="3980.5" viewBox="0 0 3320.999 3980.5">
  <defs>
    <radialGradient id="radial-gradient" cx="0.5" cy="0.5" r="1.06" gradientTransform="matrix(0.595, -0.089, 0.032, 0.595, 0.187, 0.247)" gradientUnits="objectBoundingBox">
      <stop offset="0" stop-color="#463957"/>
      <stop offset="1" stop-color="#786279"/>
    </radialGradient>
    <filter id="Subtraction_2" x="0" y="0" width="2636.103" height="1694.587" filterUnits="userSpaceOnUse">
      <feOffset dy="3" input="SourceAlpha"/>
      <feGaussianBlur stdDeviation="49.5" result="blur"/>
      <feFlood flood-opacity="0.188"/>
      <feComposite operator="in" in2="blur"/>
      <feComposite in="SourceGraphic"/>
    </filter>
    <radialGradient id="radial-gradient-2" cy="0.5" r="0.245" gradientTransform="matrix(2.575, -0.089, 0.595, 2.575, -1.085, -0.743)" xlink:href="#radial-gradient"/>
    <filter id="Subtraction_1" x="2105.546" y="618.759" width="1215.453" height="2671.608" filterUnits="userSpaceOnUse">
      <feOffset dy="3" input="SourceAlpha"/>
      <feGaussianBlur stdDeviation="49.5" result="blur-2"/>
      <feFlood flood-opacity="0.188"/>
      <feComposite operator="in" in2="blur-2"/>
      <feComposite in="SourceGraphic"/>
    </filter>
  </defs>
  <g id="Group_185" data-name="Group 185" transform="translate(148.5 145.5)">
    <g id="Rectangle_779" data-name="Rectangle 779" fill="#fff" stroke="#707070" stroke-width="1">
      <rect width="3024" height="3835" stroke="none"/>
      <rect x="0.5" y="0.5" width="3023" height="3834" fill="none"/>
    </g>
    <g transform="matrix(1, 0, 0, 1, -148.5, -145.5)" filter="url(#Subtraction_2)">
      <path id="Subtraction_2-2" data-name="Subtraction 2" d="M236.567,1397.586A186.7,186.7,0,0,1,71.294,1298.34L0,1164.257V0H2261.785l55.395,104.182a188.385,188.385,0,0,1,14.339,35.06,185.993,185.993,0,0,1,6.548,72.249,187.549,187.549,0,0,1-40.836,98.446,186.079,186.079,0,0,1-25.878,26.1,188.378,188.378,0,0,1-31.492,21.047L324.2,1375.66a186.223,186.223,0,0,1-87.63,21.926Z" transform="translate(148.5 145.5)" fill="url(#radial-gradient)"/>
    </g>
    <g transform="matrix(1, 0, 0, 1, -148.5, -145.5)" filter="url(#Subtraction_1)">
      <path id="Subtraction_1-2" data-name="Subtraction 1" d="M880.579,2374.608h0L-15.95,688.482a188.384,188.384,0,0,1-14.339-35.059,185.974,185.974,0,0,1-6.548-72.249A187.544,187.544,0,0,1,4,482.728a186.083,186.083,0,0,1,25.878-26.1A188.375,188.375,0,0,1,61.371,435.58L880.579,0V2374.608h0Z" transform="translate(2291.92 764.26)" fill="url(#radial-gradient-2)"/>
    </g>
  </g>
</svg>
