<?xml version="1.0" encoding="iso-8859-1"?>
<!-- Generator: Adobe Illustrator 19.0.0, SVG Export Plug-In . SVG Version: 6.00 Build 0)  -->
<svg version="1.1" id="Capa_1" xmlns="http://www.w3.org/2000/svg" xmlns:xlink="http://www.w3.org/1999/xlink" x="0px" y="0px"
	 viewBox="0 0 469.341 469.341" style="enable-background:new 0 0 469.341 469.341;" xml:space="preserve">
<g>
	<g>
		<g>
			<path d="M426.671,106.674H266.033l113.805-87.542c4.677-3.594,5.542-10.292,1.958-14.958c-3.594-4.677-10.292-5.542-14.958-1.958
				L234.671,103.883L102.504,2.216c-4.667-3.594-11.375-2.729-14.958,1.958c-3.583,4.667-2.719,11.365,1.958,14.958l113.805,87.542
				H42.671c-23.531,0-42.667,19.135-42.667,42.667v256c0,19.844,13.615,36.573,32,41.313v12.021c0,5.896,4.771,10.667,10.667,10.667
				h384c5.896,0,10.667-4.771,10.667-10.667v-12.021c18.385-4.74,32-21.469,32-41.313v-256
				C469.337,125.81,450.202,106.674,426.671,106.674z M448.004,405.341c0,11.76-9.573,21.333-21.333,21.333
				c-5.896,0-10.667,4.771-10.667,10.667v10.667H53.337v-10.667c0-5.896-4.771-10.667-10.667-10.667
				c-11.76,0-21.333-9.573-21.333-21.333v-256c0-11.76,9.573-21.333,21.333-21.333h384c11.76,0,21.333,9.573,21.333,21.333V405.341z
				"/>
			<path d="M390.421,157.602c-24.771-3.083-77.698-8.26-153.927-8.26c-76.198,0-129.146,5.177-153.927,8.26
				c-15.594,1.948-27.646,11.927-30.719,25.438c-4.188,18.521-9.177,51.76-9.177,104.969c0,53.208,4.99,86.448,9.177,104.979
				c3.073,13.5,15.125,23.479,30.729,25.427c24.771,3.083,77.719,8.26,153.917,8.26c76.229,0,129.156-5.177,153.927-8.26
				c15.604-1.948,27.667-11.938,30.719-25.438c4.188-18.49,9.188-51.708,9.188-104.969c0-53.26-5-86.479-9.188-104.969
				C418.087,169.539,406.025,159.549,390.421,157.602z M400.327,388.268c-1.031,4.563-6.073,8.167-12.552,8.979
				c-24.271,3.021-76.208,8.094-151.281,8.094c-75.052,0-127-5.073-151.281-8.094c-6.469-0.813-11.521-4.417-12.552-8.979
				c-3.948-17.458-8.656-49.021-8.656-100.26c0-51.24,4.708-82.802,8.656-100.25c1.031-4.573,6.083-8.177,12.552-8.99
				c24.281-3.021,76.229-8.094,151.281-8.094c75.073,0,127.01,5.073,151.281,8.094c6.479,0.813,11.521,4.417,12.552,8.979
				c3.958,17.438,8.667,48.979,8.667,100.26C408.993,339.289,404.285,370.831,400.327,388.268z"/>
			<path d="M192.004,234.674c-17.646,0-32,14.354-32,32v64c0,5.896,4.771,10.667,10.667,10.667s10.667-4.771,10.667-10.667v-10.667
				h21.333v10.667c0,5.896,4.771,10.667,10.667,10.667c5.896,0,10.667-4.771,10.667-10.667v-64
				C224.004,249.029,209.65,234.674,192.004,234.674z M202.671,298.674h-21.333v-32c0-5.885,4.781-10.667,10.667-10.667
				c5.885,0,10.667,4.781,10.667,10.667V298.674z"/>
			<path d="M277.337,234.674h-21.333c-5.896,0-10.667,4.771-10.667,10.667v85.333c0,5.896,4.771,10.667,10.667,10.667h21.333
				c17.646,0,32-14.354,32-32v-42.667C309.337,249.029,294.983,234.674,277.337,234.674z M288.004,309.341
				c0,5.885-4.781,10.667-10.667,10.667h-10.667v-64h10.667c5.885,0,10.667,4.781,10.667,10.667V309.341z"/>
		</g>
	</g>
</g>
<g>
</g>
<g>
</g>
<g>
</g>
<g>
</g>
<g>
</g>
<g>
</g>
<g>
</g>
<g>
</g>
<g>
</g>
<g>
</g>
<g>
</g>
<g>
</g>
<g>
</g>
<g>
</g>
<g>
</g>
</svg>
